<svg xmlns="http://www.w3.org/2000/svg" xmlns:xlink="http://www.w3.org/1999/xlink" width="1200" zoomAndPan="magnify" viewBox="0 0 900 299.999988" height="400" preserveAspectRatio="xMidYMid meet" version="1.0"><defs><g/></defs><g fill="#ffffff" fill-opacity="1"><g transform="translate(-0.0240938, 219.360659)"><g><path d="M 17.53125 -146.078125 L 127.71875 -146.078125 L 127.71875 -117.484375 L 49.453125 -117.484375 L 49.453125 -87.859375 L 118.328125 -87.859375 L 118.328125 -59.265625 L 49.453125 -59.265625 L 49.453125 -28.59375 L 128.765625 -28.59375 L 128.765625 0 L 17.53125 0 Z M 17.53125 -146.078125 "/></g></g></g><g fill="#ffffff" fill-opacity="1"><g transform="translate(127.266755, 219.360659)"><g><path d="M 17.53125 -146.078125 L 47.15625 -146.078125 L 115.609375 -56.140625 L 115.609375 -146.078125 L 147.328125 -146.078125 L 147.328125 0 L 120 0 L 49.25 -92.859375 L 49.25 0 L 17.53125 0 Z M 17.53125 -146.078125 "/></g></g></g><g fill="#ffffff" fill-opacity="1"><g transform="translate(279.598647, 219.360659)"><g><path d="M 67.609375 -147.125 L 97.25 -147.125 L 159.859375 0 L 126.25 0 L 112.90625 -32.765625 L 51.125 -32.765625 L 37.765625 0 L 5.015625 0 Z M 101.421875 -61.140625 L 82.015625 -108.515625 L 62.609375 -61.140625 Z M 101.421875 -61.140625 "/></g></g></g><g fill="#ffffff" fill-opacity="1"><g transform="translate(431.930559, 219.360659)"><g><path d="M 17.53125 -146.078125 L 77.21875 -146.078125 C 85.976562 -146.078125 93.800781 -144.859375 100.6875 -142.421875 C 107.570312 -139.992188 113.414062 -136.550781 118.21875 -132.09375 C 123.019531 -127.644531 126.707031 -122.320312 129.28125 -116.125 C 131.851562 -109.9375 133.140625 -103.085938 133.140625 -95.578125 L 133.140625 -95.15625 C 133.140625 -86.675781 131.609375 -79.234375 128.546875 -72.828125 C 125.484375 -66.429688 121.273438 -61.078125 115.921875 -56.765625 C 110.566406 -52.453125 104.304688 -49.21875 97.140625 -47.0625 C 89.972656 -44.90625 82.285156 -43.828125 74.078125 -43.828125 L 49.671875 -43.828125 L 49.671875 0 L 17.53125 0 Z M 75.125 -72.421875 C 83.195312 -72.421875 89.457031 -74.539062 93.90625 -78.78125 C 98.363281 -83.019531 100.59375 -88.269531 100.59375 -94.53125 L 100.59375 -94.953125 C 100.59375 -102.179688 98.257812 -107.675781 93.59375 -111.4375 C 88.9375 -115.195312 82.570312 -117.078125 74.5 -117.078125 L 49.671875 -117.078125 L 49.671875 -72.421875 Z M 75.125 -72.421875 "/></g></g></g><g fill="#ffffff" fill-opacity="1"><g transform="translate(558.804059, 219.360659)"><g><path d="M 17.53125 -146.078125 L 49.671875 -146.078125 L 49.671875 -29.21875 L 122.5 -29.21875 L 122.5 0 L 17.53125 0 Z M 17.53125 -146.078125 "/></g></g></g><g fill="#ffffff" fill-opacity="1"><g transform="translate(675.452469, 219.360659)"><g><path d="M 88.484375 2.5 C 77.210938 2.5 66.847656 0.519531 57.390625 -3.4375 C 47.929688 -7.40625 39.753906 -12.765625 32.859375 -19.515625 C 25.972656 -26.265625 20.617188 -34.191406 16.796875 -43.296875 C 12.972656 -52.410156 11.0625 -62.1875 11.0625 -72.625 L 11.0625 -73.046875 C 11.0625 -83.472656 13.007812 -93.242188 16.90625 -102.359375 C 20.800781 -111.472656 26.191406 -119.472656 33.078125 -126.359375 C 39.960938 -133.242188 48.171875 -138.664062 57.703125 -142.625 C 67.234375 -146.59375 77.632812 -148.578125 88.90625 -148.578125 C 100.164062 -148.578125 110.523438 -146.59375 119.984375 -142.625 C 129.453125 -138.664062 137.628906 -133.3125 144.515625 -126.5625 C 151.398438 -119.820312 156.753906 -111.894531 160.578125 -102.78125 C 164.410156 -93.664062 166.328125 -83.890625 166.328125 -73.453125 L 166.328125 -73.046875 C 166.328125 -62.609375 164.378906 -52.832031 160.484375 -43.71875 C 156.585938 -34.601562 151.195312 -26.601562 144.3125 -19.71875 C 137.425781 -12.832031 129.21875 -7.40625 119.6875 -3.4375 C 110.15625 0.519531 99.753906 2.5 88.484375 2.5 Z M 88.90625 -27.125 C 95.300781 -27.125 101.210938 -28.304688 106.640625 -30.671875 C 112.066406 -33.035156 116.691406 -36.304688 120.515625 -40.484375 C 124.335938 -44.660156 127.328125 -49.492188 129.484375 -54.984375 C 131.640625 -60.484375 132.71875 -66.363281 132.71875 -72.625 L 132.71875 -73.046875 C 132.71875 -79.304688 131.640625 -85.21875 129.484375 -90.78125 C 127.328125 -96.34375 124.265625 -101.207031 120.296875 -105.375 C 116.335938 -109.550781 111.644531 -112.859375 106.21875 -115.296875 C 100.789062 -117.734375 94.878906 -118.953125 88.484375 -118.953125 C 81.941406 -118.953125 75.992188 -117.769531 70.640625 -115.40625 C 65.285156 -113.039062 60.691406 -109.769531 56.859375 -105.59375 C 53.035156 -101.414062 50.046875 -96.578125 47.890625 -91.078125 C 45.734375 -85.585938 44.65625 -79.710938 44.65625 -73.453125 L 44.65625 -73.046875 C 44.65625 -66.785156 45.734375 -60.867188 47.890625 -55.296875 C 50.046875 -49.734375 53.109375 -44.863281 57.078125 -40.6875 C 61.046875 -36.519531 65.707031 -33.21875 71.0625 -30.78125 C 76.414062 -28.34375 82.363281 -27.125 88.90625 -27.125 Z M 88.90625 -27.125 "/></g></g></g><g fill="#f63900" fill-opacity="1"><g transform="translate(840.324469, 219.360659)"><g><path d="M 12.9375 -33.390625 L 46.75 -33.390625 L 46.75 0 L 12.9375 0 Z M 12.9375 -33.390625 "/></g></g></g></svg>