<svg xmlns="http://www.w3.org/2000/svg" xmlns:xlink="http://www.w3.org/1999/xlink" width="1000" zoomAndPan="magnify" viewBox="0 0 750 299.999988" height="400" preserveAspectRatio="xMidYMid meet" version="1.0"><defs><g/><clipPath id="ff6d877c55"><path d="M 700.726562 192.574219 L 720 192.574219 L 720 211.847656 L 700.726562 211.847656 Z M 700.726562 192.574219 " clip-rule="nonzero"/></clipPath></defs><g fill="#ffffff" fill-opacity="1"><g transform="translate(47.603917, 212.019592)"><g><path d="M 14.15625 -117.921875 L 103.109375 -117.921875 L 103.109375 -94.84375 L 39.921875 -94.84375 L 39.921875 -70.921875 L 95.515625 -70.921875 L 95.515625 -47.84375 L 39.921875 -47.84375 L 39.921875 -23.078125 L 103.9375 -23.078125 L 103.9375 0 L 14.15625 0 Z M 14.15625 -117.921875 "/></g></g></g><g fill="#ffffff" fill-opacity="1"><g transform="translate(143.62325, 212.019592)"><g><path d="M 14.15625 -117.921875 L 38.078125 -117.921875 L 93.328125 -45.3125 L 93.328125 -117.921875 L 118.9375 -117.921875 L 118.9375 0 L 96.875 0 L 39.765625 -74.96875 L 39.765625 0 L 14.15625 0 Z M 14.15625 -117.921875 "/></g></g></g><g fill="#ffffff" fill-opacity="1"><g transform="translate(259.857424, 212.019592)"><g><path d="M 54.578125 -118.765625 L 78.5 -118.765625 L 129.046875 0 L 101.921875 0 L 91.140625 -26.453125 L 41.28125 -26.453125 L 30.5 0 L 4.046875 0 Z M 81.875 -49.359375 L 66.203125 -87.609375 L 50.546875 -49.359375 Z M 81.875 -49.359375 "/></g></g></g><g fill="#ffffff" fill-opacity="1"><g transform="translate(376.091599, 212.019592)"><g><path d="M 14.15625 -117.921875 L 62.328125 -117.921875 C 69.410156 -117.921875 75.726562 -116.9375 81.28125 -114.96875 C 86.84375 -113.007812 91.5625 -110.234375 95.4375 -106.640625 C 99.3125 -103.046875 102.285156 -98.75 104.359375 -93.75 C 106.441406 -88.75 107.484375 -83.21875 107.484375 -77.15625 L 107.484375 -76.828125 C 107.484375 -69.972656 106.25 -63.960938 103.78125 -58.796875 C 101.3125 -53.628906 97.910156 -49.300781 93.578125 -45.8125 C 89.253906 -42.332031 84.203125 -39.722656 78.421875 -37.984375 C 72.640625 -36.242188 66.4375 -35.375 59.8125 -35.375 L 40.09375 -35.375 L 40.09375 0 L 14.15625 0 Z M 60.65625 -58.453125 C 67.164062 -58.453125 72.21875 -60.164062 75.8125 -63.59375 C 79.40625 -67.019531 81.203125 -71.257812 81.203125 -76.3125 L 81.203125 -76.65625 C 81.203125 -82.488281 79.320312 -86.921875 75.5625 -89.953125 C 71.800781 -92.992188 66.660156 -94.515625 60.140625 -94.515625 L 40.09375 -94.515625 L 40.09375 -58.453125 Z M 60.65625 -58.453125 "/></g></g></g><g fill="#ffffff" fill-opacity="1"><g transform="translate(471.774018, 212.019592)"><g><path d="M 14.15625 -117.921875 L 40.09375 -117.921875 L 40.09375 -23.578125 L 98.890625 -23.578125 L 98.890625 0 L 14.15625 0 Z M 14.15625 -117.921875 "/></g></g></g><g fill="#ffffff" fill-opacity="1"><g transform="translate(559.20202, 212.019592)"><g><path d="M 71.4375 2.015625 C 62.332031 2.015625 53.960938 0.414062 46.328125 -2.78125 C 38.691406 -5.976562 32.09375 -10.300781 26.53125 -15.75 C 20.96875 -21.195312 16.640625 -27.597656 13.546875 -34.953125 C 10.460938 -42.304688 8.921875 -50.195312 8.921875 -58.625 L 8.921875 -58.96875 C 8.921875 -67.382812 10.492188 -75.269531 13.640625 -82.625 C 16.785156 -89.988281 21.140625 -96.445312 26.703125 -102 C 32.265625 -107.5625 38.890625 -111.941406 46.578125 -115.140625 C 54.273438 -118.347656 62.671875 -119.953125 71.765625 -119.953125 C 80.859375 -119.953125 89.222656 -118.347656 96.859375 -115.140625 C 104.503906 -111.941406 111.101562 -107.617188 116.65625 -102.171875 C 122.21875 -96.722656 126.539062 -90.320312 129.625 -82.96875 C 132.71875 -75.613281 134.265625 -67.722656 134.265625 -59.296875 L 134.265625 -58.96875 C 134.265625 -50.539062 132.691406 -42.648438 129.546875 -35.296875 C 126.398438 -27.941406 122.046875 -21.484375 116.484375 -15.921875 C 110.929688 -10.359375 104.304688 -5.976562 96.609375 -2.78125 C 88.921875 0.414062 80.53125 2.015625 71.4375 2.015625 Z M 71.765625 -21.90625 C 76.929688 -21.90625 81.703125 -22.859375 86.078125 -24.765625 C 90.460938 -26.671875 94.195312 -29.304688 97.28125 -32.671875 C 100.375 -36.046875 102.789062 -39.953125 104.53125 -44.390625 C 106.269531 -48.828125 107.140625 -53.570312 107.140625 -58.625 L 107.140625 -58.96875 C 107.140625 -64.019531 106.269531 -68.789062 104.53125 -73.28125 C 102.789062 -77.769531 100.320312 -81.695312 97.125 -85.0625 C 93.925781 -88.4375 90.132812 -91.109375 85.75 -93.078125 C 81.375 -95.046875 76.601562 -96.03125 71.4375 -96.03125 C 66.15625 -96.03125 61.351562 -95.070312 57.03125 -93.15625 C 52.707031 -91.25 49 -88.609375 45.90625 -85.234375 C 42.820312 -81.867188 40.40625 -77.96875 38.65625 -73.53125 C 36.914062 -69.09375 36.046875 -64.347656 36.046875 -59.296875 L 36.046875 -58.96875 C 36.046875 -53.914062 36.914062 -49.140625 38.65625 -44.640625 C 40.40625 -40.148438 42.878906 -36.21875 46.078125 -32.84375 C 49.273438 -29.476562 53.035156 -26.8125 57.359375 -24.84375 C 61.679688 -22.882812 66.484375 -21.90625 71.765625 -21.90625 Z M 71.765625 -21.90625 "/></g></g></g><g clip-path="url(#ff6d877c55)"><path fill="#f63900" d="M 700.726562 192.574219 L 720 192.574219 L 720 211.847656 L 700.726562 211.847656 Z M 700.726562 192.574219 " fill-opacity="1" fill-rule="nonzero"/></g></svg>